<!--version="1.0" encoding="utf-8"--><!-- Generated by IcoMoon.io --><!DOCTYPE html PUBLIC "-//W3C//DTD SVG 1.1//EN" "http://www.w3.org/Graphics/SVG/1.1/DTD/svg11.dtd"><svg version="1.1" xmlns="http://www.w3.org/2000/svg" width="16" height="16" viewBox="0 0 16 16" preserveAspectRatio="xMidYMid meet" zoomAndPan="magnify" contentScriptType="application/ecmascript" contentStyleType="text/css"><path fill="#eb6136" d="M2.6 5.6C3.5 3.5 5.6 2 8 2c3 0 5.4 2.2 5.9 5h2c-.5-3.9-3.8-7-7.9-7-3 0-5.6 1.6-6.9 4.1L0 3v4h4L2.6 5.6z"/><path fill="#eb6136" d="M16 9h-4.1l1.5 1.4c-.9 2.1-3 3.6-5.5 3.6C5 14 2.5 11.8 2 9h-2c.5 3.9 3.9 7 7.9 7 3 0 5.6-1.7 7-4.1L16 13V9z"/></svg>